PathFileType  4	(X/Y/Z) C:\Users\antoi\Documents\MyRepositories\mobilecap\ResultsAnalysis
DataRate	CameraRate	NumFrames	NumMarkers	Units	OrigDataRate	OrigDataStartFrame	OrigNumFrames
100.0	100.0	6	51	mm	100.0	81	160
Frame#	Time	r_knee			r_shank_antsup			r_ankle			r_calc			r_5meta			r_toe			L_knee			L_shank_antsup			L_ankle			L_calc			L_5meta			L_toe			r_sh2			r_sh3			r_sh4			L_sh2			L_sh3			r_thigh1			r_thigh2			r_thigh3			r_thigh4			r_thigh5			L_thigh1			L_thigh2			L_thigh3			L_thigh4			r.ASIS			r.PSIS			L.ASIS			L.PSIS			C7			R_Shoulder			L_Shoulder			R_Sternum			L_Sternum			R_humerus			R_elbow_med			R_elbow_lat			R_forearm			R_wrist_radius			R_wrist_ulna			L_humerus			L_elbow_med			L_elbow_lat			L_forearm			L_wrist_radius			L_wrist_ulna			R_HJC			L_HJC			R_HJC_reg			L_HJC_reg			
		X1	Y1	Z1	X2	Y2	Z2	X3	Y3	Z3	X4	Y4	Z4	X5	Y5	Z5	X6	Y6	Z6	X7	Y7	Z7	X8	Y8	Z8	X9	Y9	Z9	X10	Y10	Z10	X11	Y11	Z11	X12	Y12	Z12	X13	Y13	Z13	X14	Y14	Z14	X15	Y15	Z15	X16	Y16	Z16	X17	Y17	Z17	X18	Y18	Z18	X19	Y19	Z19	X20	Y20	Z20	X21	Y21	Z21	X22	Y22	Z22	X23	Y23	Z23	X24	Y24	Z24	X25	Y25	Z25	X26	Y26	Z26	X27	Y27	Z27	X28	Y28	Z28	X29	Y29	Z29	X30	Y30	Z30	X31	Y31	Z31	X32	Y32	Z32	X33	Y33	Z33	X34	Y34	Z34	X35	Y35	Z35	X36	Y36	Z36	X37	Y37	Z37	X38	Y38	Z38	X39	Y39	Z39	X40	Y40	Z40	X41	Y41	Z41	X42	Y42	Z42	X43	Y43	Z43	X44	Y44	Z44	X45	Y45	Z45	X46	Y46	Z46	X47	Y47	Z47	X48	Y48	Z48	X49	Y49	Z49	X50	Y50	Z50	X51	Y51	Z51	

81	0.80000000	595.70038	530.29967	-100.35644	542.23371	408.62965	-115.12224	262.27266	226.55550	-182.51911	210.52051	251.39721	-246.51084	278.97286	73.38368	-131.16013	339.26887	66.21386	-188.83307	823.44682	538.14654	-498.23554	875.31865	435.01974	-490.54009	781.02028	88.61913	-471.40773	722.96733	68.28218	-412.55410	923.75976	32.49410	-496.78955	956.97721	60.93219	-430.86859	474.21950	322.18648	-146.71404	479.14392	446.08088	-89.76334	407.35852	354.93580	-104.99512	787.61886	435.69558	-515.71751	803.47991	316.36110	-531.98548	737.78597	743.15038	-108.36854	724.65707	631.24818	-114.14767	677.59486	612.15824	-70.05380	634.95622	749.85869	-58.62300	624.13088	633.09143	-72.15620	819.14814	799.86946	-508.03869	870.48050	671.06694	-506.63887	715.91127	754.41785	-521.68348	769.72965	627.37768	-514.29789	743.18617	1031.78171	-143.07647	555.46177	1071.98984	-255.21682	782.82359	1009.92132	-406.51595	564.30047	1064.19185	-351.41498	648.29615	1511.63951	-502.20833	702.77256	1545.42276	-302.58154	719.17693	1372.09256	-620.31510	776.52202	1448.75812	-431.14969	778.07262	1421.32210	-470.14458	690.88267	1427.39035	-159.45413	572.14634	1226.23290	-106.67644	613.10003	1269.08240	-45.66856	710.08354	1122.28515	-20.49165	747.14844	1010.33152	12.24323	724.85414	1009.95716	49.06066	711.33528	1183.83880	-645.24707	633.29482	997.53610	-540.55300	649.42553	993.56957	-620.61071	742.68178	856.92936	-598.05722	760.29058	737.11738	-602.84389	719.08580	733.38054	-628.52616	662.65799	954.38827	-183.28325	692.13883	927.05682	-392.84221	673.95418	954.43195	-181.37248	690.04588	940.23727	-356.48437	
82	0.81000000	614.39281	530.81856	-97.48555	559.49538	410.79865	-112.32043	275.82210	235.39237	-183.71953	228.05488	262.85550	-249.15361	284.18871	81.17825	-133.08383	346.52122	71.54205	-187.80853	829.59334	538.12208	-498.76055	879.96881	434.26325	-490.84034	781.43208	88.80180	-471.54978	723.09903	68.77271	-412.85285	923.80468	32.24821	-496.89960	957.14256	60.64092	-430.93937	489.75986	325.74313	-144.58948	496.76471	449.92337	-88.20261	423.17738	360.39986	-104.21209	792.27322	435.92858	-516.10128	806.75437	316.45411	-532.41908	751.63751	746.34276	-106.00798	741.34776	634.03951	-110.17644	694.07103	614.43957	-66.52602	648.19238	751.37175	-57.66396	640.16505	634.15207	-69.73507	828.76179	800.03541	-508.23546	878.52381	670.56094	-506.78956	725.31774	755.89344	-523.04154	777.51434	628.20020	-515.40913	751.98106	1033.91931	-144.14848	565.12600	1073.40325	-258.34787	794.29361	1011.18660	-407.12970	574.95634	1065.87993	-354.33002	659.25656	1512.29121	-506.26905	711.68725	1547.60392	-306.41163	732.14229	1372.75064	-622.98268	787.08720	1450.51175	-433.68587	789.10937	1422.86278	-472.49813	698.52560	1430.56985	-162.49625	579.63272	1229.61139	-109.49112	619.72395	1273.08367	-48.34787	716.60637	1126.61595	-20.65257	753.20723	1014.72554	13.46636	730.63331	1014.71378	50.00417	725.73621	1184.52520	-648.16162	647.84137	997.98239	-543.41452	665.15739	993.80979	-623.23409	759.26330	858.19467	-598.99330	778.61767	738.70047	-603.22245	737.68845	734.34179	-629.28442	671.79925	956.29578	-184.96791	703.39844	928.42693	-394.15267	683.44256	955.46536	-183.26085	701.36941	941.75094	-358.25045	
83	0.82000000	633.06004	531.73740	-94.71916	577.07137	413.30427	-109.62783	289.92213	244.17462	-185.21571	246.07063	273.41834	-252.25375	290.89606	89.49138	-134.85896	355.26631	77.58656	-186.30405	835.32981	538.14680	-499.33897	884.15890	433.59138	-491.24353	781.81050	88.99613	-471.75342	723.25797	69.22726	-413.18690	923.84598	31.98231	-497.04124	957.26126	60.42200	-431.06784	505.69389	329.61773	-142.67635	514.70262	454.01388	-86.74484	439.48037	366.03771	-103.51585	796.47421	436.19362	-516.56699	809.68483	316.59529	-532.92086	765.34632	749.77543	-103.66471	757.79657	637.19694	-106.40612	710.30725	617.00652	-63.19850	661.32259	753.06847	-56.72835	656.02213	635.52665	-67.48549	837.94041	800.27810	-508.49995	886.19170	670.20272	-506.84733	734.40474	757.50128	-524.43126	784.98333	629.17063	-516.68662	760.57723	1035.99010	-145.08952	574.58875	1074.78074	-261.24632	805.33822	1012.43310	-407.68778	585.33693	1067.58644	-357.00497	670.14043	1513.03930	-510.09084	720.48413	1549.67218	-309.92946	744.99626	1373.47961	-625.43319	797.52405	1452.26702	-435.98587	799.96600	1424.44353	-474.64318	705.83999	1433.55411	-165.32099	587.10404	1232.52201	-112.55934	625.99979	1276.68204	-51.14607	722.90699	1130.75060	-20.69572	759.14583	1019.00163	14.89933	736.25358	1019.36709	51.09867	740.11750	1185.35281	-650.80797	662.27118	998.44310	-546.34277	680.87920	994.18259	-625.84417	775.96634	859.59447	-599.88450	797.08730	740.44986	-603.56512	756.46804	735.41915	-630.01970	680.71627	958.15217	-186.51919	714.27453	929.79101	-395.33806	692.71403	956.37976	-185.01013	712.35212	943.24199	-359.91886	
84	0.83000000	651.61773	533.09321	-92.06604	594.86124	416.13142	-107.04826	304.68308	252.72140	-187.00276	264.43140	282.84024	-255.76761	299.46095	98.13986	-136.24481	365.75871	84.19532	-184.31277	840.62747	538.19333	-499.97973	887.92706	432.99761	-491.76089	782.15664	89.19523	-472.01400	723.44101	69.63144	-413.53592	923.88877	31.70394	-497.21125	957.34822	60.25440	-431.25376	522.02979	333.74416	-140.97771	532.83657	458.28204	-85.44133	456.18376	371.72930	-102.93393	800.26916	436.47541	-517.13223	812.30408	316.77361	-533.49986	778.88657	753.45062	-101.34433	773.91850	640.69700	-102.86945	726.25000	619.86715	-60.08890	674.30835	754.98212	-55.84847	671.65778	637.25136	-65.42594	846.70334	800.56419	-508.85826	893.45917	669.94407	-506.86358	743.11654	759.18924	-525.81728	792.08338	630.21714	-518.06461	769.00640	1038.04319	-145.92777	583.87860	1076.13938	-263.91274	815.92782	1013.68329	-408.18500	595.45603	1069.30622	-359.43937	680.93473	1513.87140	-513.68626	729.17654	1551.64849	-313.15950	757.71684	1374.26456	-627.66665	807.82360	1454.00853	-438.06326	810.66043	1426.05711	-476.58823	712.86643	1436.36292	-167.96306	594.56940	1235.01137	-115.88326	631.97649	1279.89558	-54.08367	728.97789	1134.68714	-20.65890	764.95115	1023.17862	16.48667	741.65822	1023.90344	52.27954	754.49135	1186.31882	-653.10646	676.59656	998.89311	-549.32207	696.60141	994.68687	-628.40694	792.79135	861.11071	-600.73539	815.68887	742.34646	-603.89373	775.40234	736.60493	-630.75021	689.44302	959.99505	-187.92773	724.77520	931.15600	-396.39224	701.79503	957.24153	-186.61615	722.99093	944.73845	-361.45880	
85	0.84000000	670.00016	534.88391	-89.55497	612.77410	419.24382	-104.62454	320.21984	260.84242	-189.03394	283.03339	290.97017	-259.55483	310.18353	106.91891	-137.04139	378.17946	91.16371	-181.91800	845.46656	538.24899	-500.66838	891.31931	432.48108	-492.37632	782.46455	89.39660	-472.32851	723.62523	69.98212	-413.89204	923.93073	31.41771	-497.40491	957.41882	60.11918	-431.49567	538.78161	338.02151	-139.50210	551.06181	462.63292	-84.33979	473.22319	377.33164	-102.50577	803.70734	436.76190	-517.78338	814.64780	316.98051	-534.14718	792.22253	757.35440	-99.05590	789.67262	644.50229	-99.57677	741.87820	623.00578	-57.20167	687.11191	757.11381	-55.05457	687.05713	639.32769	-63.56550	855.08156	800.86285	-509.30807	900.31951	669.73585	-506.88650	751.40874	760.90852	-527.15834	798.77587	631.26200	-519.46717	777.30648	1040.11954	-146.69338	593.02683	1077.50252	-266.36591	826.08089	1014.95314	-408.60552	605.33762	1071.03157	-361.65187	691.62392	1514.77086	-517.06786	737.76959	1553.55579	-316.13355	770.28339	1375.09136	-629.68488	817.97681	1455.72500	-439.93454	821.21199	1427.69299	-478.34254	719.65441	1439.01478	-170.46210	602.02414	1237.14548	-119.43860	637.70566	1282.75982	-57.16274	734.81954	1138.43002	-20.58360	770.61787	1027.28255	18.15879	746.79235	1028.29260	53.46117	768.86934	1187.40875	-655.03160	690.84765	999.31310	-552.33289	712.34596	995.30238	-630.90393	809.71598	862.72653	-601.54975	834.40712	744.37471	-604.22520	794.46313	737.89497	-631.49384	698.01559	961.85928	-189.19083	734.93630	932.52586	-397.31234	710.71795	958.12991	-188.07453	733.30086	946.26512	-362.83327	
86	0.85000000	688.16782	537.06992	-87.23626	630.75332	422.57746	-102.42751	336.62135	268.34490	-191.21333	301.81276	297.75471	-263.39946	323.22599	115.57804	-137.15275	392.59134	98.22728	-179.28818	849.84909	538.31419	-501.37546	894.38035	432.04427	-493.05790	782.72303	89.60404	-472.69552	723.77862	70.29323	-414.26461	923.96554	31.12511	-497.61847	957.48629	60.00143	-431.78901	555.96811	342.32266	-138.26087	569.31107	466.95706	-83.46756	490.56490	382.68991	-102.26396	806.82908	437.05062	-518.48516	816.74857	317.21327	-534.84167	805.31346	761.45804	-96.81933	805.06778	648.57211	-96.52914	757.20067	626.38666	-54.54030	699.70708	759.43493	-54.37008	702.23087	641.72322	-61.91378	863.09415	801.14145	-509.83549	906.78459	669.53536	-506.96328	759.25726	762.62062	-528.41353	805.04380	632.23362	-520.82675	785.52130	1042.24474	-147.41284	602.06453	1078.89821	-268.62975	835.85745	1016.25425	-408.93597	615.01263	1072.75422	-363.67029	702.19383	1515.72215	-520.24693	746.26336	1555.41544	-318.88561	782.67702	1375.94654	-631.49086	827.97669	1457.41155	-441.61877	831.63170	1429.33726	-479.91691	726.25900	1441.52709	-172.85404	609.45483	1238.99892	-123.17825	643.23925	1285.32233	-60.36756	740.44010	1141.98428	-20.51359	776.13798	1031.32702	19.83879	751.62045	1032.49858	54.55617	783.25458	1188.59296	-656.61387	705.07599	999.68680	-555.35515	728.14136	995.98939	-633.33512	826.70846	864.42637	-602.33295	853.21977	746.51971	-604.56912	813.62231	739.28803	-632.26646	706.47333	963.77086	-190.31320	744.81240	933.90501	-398.10165	719.51736	959.12620	-189.38063	743.31093	947.83893	-364.01073	
